# Sample "skin envelope" — a unit cube centred at origin, 0.30 m per side.
# Lives in StreamingAssets-style folder so PatientDirectoryLoader can read it
# once copied into Application.persistentDataPath/patients/sample_001/.

v -0.15 -0.15 -0.15
v  0.15 -0.15 -0.15
v  0.15  0.15 -0.15
v -0.15  0.15 -0.15
v -0.15 -0.15  0.15
v  0.15 -0.15  0.15
v  0.15  0.15  0.15
v -0.15  0.15  0.15

# 12 triangles (2 per face)
f 1 2 3
f 1 3 4
f 5 8 7
f 5 7 6
f 1 5 6
f 1 6 2
f 4 3 7
f 4 7 8
f 1 4 8
f 1 8 5
f 2 6 7
f 2 7 3
